<svg width="26" height="27" viewBox="0 0 26 27" fill="none" xmlns="http://www.w3.org/2000/svg">
<path d="M21.3717 4.04004C20.9633 3.59522 20.555 3.32148 19.9424 3.25304C14.7356 2.36339 9.5288 1.43951 4.32199 0.54986C2.85864 0.310337 1.49738 -0.0318374 0 0.00238008C0.306283 1.26843 0.816758 2.50026 1.25917 3.73209C3.84555 10.8151 6.63613 17.7955 9.66493 24.7074C10.0052 25.4944 10.3796 26.2472 10.7539 27C16.0968 21.1146 20.9293 14.887 26 8.79628C24.4686 7.22227 22.9031 5.64827 21.3717 4.04004ZM20.0105 5.88779C21.0314 6.40105 21.7801 7.18806 22.4267 8.14615C20.2487 8.4541 18.1047 9.00159 15.9607 9.20689C17.1859 8.00928 18.479 6.70901 20.0105 5.88779ZM10.4817 21.6278C8.2356 16.1873 6.09162 10.7125 3.87958 5.27188C3.77748 4.96392 3.64136 4.62174 3.53926 4.31379C6.3979 6.2984 9.01832 8.69363 11.7408 10.8493C11.5026 14.5106 10.9581 18.0008 10.4817 21.6278ZM10.2434 7.05119C8.5759 5.68249 6.87434 4.31379 5.41099 2.73978C9.49476 3.15039 13.5445 4.04005 17.5942 4.7244C16.5052 6.02466 15.212 7.0854 13.8848 8.14615C13.4424 8.4541 13.1021 8.79628 12.5576 8.8305C11.7068 8.35145 10.9921 7.63288 10.2434 7.05119ZM12.6597 21.7647C12.5916 18.6167 13.3063 15.4687 13.6806 12.3207C13.7487 11.6706 14.0209 11.5337 14.6335 11.431C17.0838 11.0889 19.5 10.5414 21.9503 10.2676C18.9895 14.2026 15.7906 17.9666 12.6597 21.7647Z" fill="url(#paint0_linear)"/>
<defs>
<linearGradient id="paint0_linear" x1="1.625" y1="2.53125" x2="24.7875" y2="24.2275" gradientUnits="userSpaceOnUse">
<stop stop-color="#74B49B"/>
<stop offset="1" stop-color="#5C8D89"/>
</linearGradient>
</defs>
</svg>
